<svg width="28" height="19" viewBox="0 0 28 19" fill="none" xmlns="http://www.w3.org/2000/svg">
<path d="M0 0V18.3712H8.34796C9.11948 18.3712 9.87373 18.2677 10.5993 18.0626C11.3329 17.8568 11.9882 17.5396 12.5583 17.1092C13.1242 16.6823 13.5831 16.1286 13.9207 15.4455C14.2546 14.7711 14.4216 13.9684 14.4216 13.037C14.4216 11.8882 14.1661 10.9079 13.6429 10.089C13.1225 9.27484 12.3377 8.70277 11.2776 8.37835C12.0562 7.98498 12.6377 7.47899 13.0346 6.86299C13.4279 6.24487 13.6247 5.47244 13.6247 4.54745C13.6247 3.69214 13.4932 2.96987 13.2309 2.39232C12.9619 1.80631 12.5869 1.34052 12.1072 0.990328C11.62 0.640889 11.0432 0.385902 10.3675 0.233084C9.68764 0.0761597 8.94413 0.000124613 8.12 0.000124613L0 0ZM18.2786 1.23237V3.04516H25.2604V1.23237H18.2786ZM3.79271 3.12891H7.3402C7.67538 3.12891 8.00321 3.15429 8.31541 3.21988C8.63368 3.27787 8.90808 3.38663 9.15075 3.54281C9.39528 3.69276 9.58871 3.90743 9.73524 4.18146C9.87618 4.45561 9.94594 4.80841 9.94594 5.236C9.94594 6.00619 9.73466 6.5678 9.29833 6.90679C8.85756 7.25212 8.30165 7.42286 7.62953 7.42286H3.79271V3.12891ZM21.9285 4.69243C20.973 4.69243 20.1101 4.87436 19.3276 5.235C18.5453 5.59639 17.8736 6.09056 17.3071 6.71776C16.7418 7.34135 16.3114 8.08491 16.0005 8.94643C15.6957 9.8051 15.5406 10.7342 15.5406 11.729C15.5406 12.7579 15.6904 13.7066 15.988 14.5646C16.289 15.4261 16.7111 16.1602 17.2545 16.781C17.8122 17.3991 18.4749 17.8741 19.2682 18.2117C20.0622 18.5465 20.9461 18.7154 21.9285 18.7154C23.3379 18.7154 24.5472 18.3706 25.5393 17.6793C26.5425 16.9914 27.2778 15.8487 27.7627 14.2479H24.7469C24.6302 14.6594 24.328 15.0555 23.8322 15.426C23.3311 15.7978 22.7335 15.985 22.0425 15.985C21.082 15.985 20.3406 15.7152 19.8276 15.1809C19.3129 14.6465 18.9798 13.6516 18.9798 12.5996H27.9783C28.0427 11.5679 27.9641 10.5814 27.7397 9.63822C27.5136 8.69232 27.1525 7.85058 26.6439 7.11324C26.1358 6.37516 25.4884 5.78579 24.699 5.35049C23.9071 4.90958 22.9837 4.69243 21.9285 4.69243ZM21.8251 7.45136C22.6661 7.45136 23.3564 7.7117 23.7631 8.1923C24.1718 8.67639 24.4707 9.36606 24.5525 10.2973H18.9798C18.9957 10.0378 19.0475 9.74425 19.136 9.42057C19.2234 9.08855 19.3739 8.77794 19.5949 8.4835C19.8171 8.19404 20.1084 7.94715 20.4629 7.74978C20.8256 7.54967 21.2779 7.45148 21.8251 7.45148V7.45136ZM3.79283 10.184H7.91513C8.73133 10.184 9.3947 10.3834 9.8924 10.7858C10.3893 11.194 10.6396 11.8666 10.6396 12.8133C10.6396 13.2968 10.5659 13.6961 10.4126 14.0037C10.2598 14.3142 10.0502 14.5595 9.79661 14.7375C9.54321 14.923 9.24209 15.0483 8.90283 15.1278C8.56893 15.2074 8.21391 15.2423 7.83941 15.2423H3.79271L3.79283 10.184Z" fill="white"/>
</svg>
