<svg width="48" height="48" viewBox="0 0 48 48" fill="none" xmlns="http://www.w3.org/2000/svg">
<path d="M40 18.4C40 12.6562 35.3438 8 29.6 8C26.2674 8 23.3009 9.57168 21.3976 12.0115C29.5153 12.3254 36 19.0054 36 27.2C36 27.3765 35.997 27.5523 35.991 27.7273L36.5226 27.8696C38.0688 28.2833 39.4833 26.8688 39.0696 25.3226L38.8658 24.561C38.7012 23.9457 38.8001 23.2957 39.0648 22.7164C39.6653 21.4016 40 19.9399 40 18.4Z" fill="#00CFA5"/>
<path fill-rule="evenodd" clip-rule="evenodd" d="M33.6 27.2C33.6 34.2692 27.8692 40 20.8 40C18.8232 40 16.951 39.5519 15.2796 38.7517C14.7051 38.4767 14.0543 38.3801 13.439 38.5447L11.4774 39.0696C9.93122 39.4833 8.51673 38.0688 8.93042 36.5226L9.45529 34.561C9.61991 33.9457 9.52335 33.2949 9.24832 32.7204C8.44812 31.049 8 29.1768 8 27.2C8 20.1308 13.7308 14.4 20.8 14.4C27.8692 14.4 33.6 20.1308 33.6 27.2ZM15.2 28.8C16.0837 28.8 16.8 28.0837 16.8 27.2C16.8 26.3163 16.0837 25.6 15.2 25.6C14.3163 25.6 13.6 26.3163 13.6 27.2C13.6 28.0837 14.3163 28.8 15.2 28.8ZM20.8 28.8C21.6837 28.8 22.4 28.0837 22.4 27.2C22.4 26.3163 21.6837 25.6 20.8 25.6C19.9163 25.6 19.2 26.3163 19.2 27.2C19.2 28.0837 19.9163 28.8 20.8 28.8ZM26.4 28.8C27.2837 28.8 28 28.0837 28 27.2C28 26.3163 27.2837 25.6 26.4 25.6C25.5163 25.6 24.8 26.3163 24.8 27.2C24.8 28.0837 25.5163 28.8 26.4 28.8Z" fill="#00CFA5"/>
</svg>
