<svg width="48" height="48" viewBox="0 0 48 48" fill="none" xmlns="http://www.w3.org/2000/svg">
<path d="M13.0668 14.33C11.6444 15.7523 11.6444 18.0585 13.0668 19.4808L15.0724 21.4864C15.0874 21.469 15.1032 21.452 15.1198 21.4355L20.1724 16.3828C20.1889 16.3663 20.2059 16.3505 20.2232 16.3355L18.2177 14.33C16.7953 12.9076 14.4892 12.9076 13.0668 14.33Z" fill="#00CFA5"/>
<path d="M21.5595 17.6718C21.5445 17.6892 21.5287 17.7061 21.5122 17.7226L16.4596 22.7753C16.443 22.7918 16.426 22.8076 16.4086 22.8227L28.5194 34.9335C29.9418 36.3559 32.2479 36.3559 33.6703 34.9335C35.0927 33.5111 35.0927 31.205 33.6703 29.7826L21.5595 17.6718Z" fill="#00CFA5"/>
<path d="M28.5476 12.388C28.7509 11.8707 29.4804 11.8707 29.6837 12.388L30.2274 13.7716C30.2894 13.9295 30.414 14.0546 30.5714 14.1169L31.9498 14.6625C32.4653 14.8666 32.4653 15.5988 31.9498 15.8028L30.5714 16.3485C30.414 16.4108 30.2894 16.5358 30.2274 16.6938L29.6837 18.0773C29.4804 18.5947 28.7509 18.5947 28.5476 18.0773L28.0039 16.6938C27.9419 16.5358 27.8173 16.4108 27.6599 16.3485L26.2815 15.8028C25.766 15.5988 25.766 14.8666 26.2815 14.6625L27.6599 14.1169C27.8173 14.0546 27.9419 13.9295 28.0039 13.7716L28.5476 12.388Z" fill="#00CFA5"/>
<path d="M33.4325 21.0057C33.6358 20.4883 34.3653 20.4883 34.5686 21.0057L34.7668 21.5102C34.8289 21.6681 34.9534 21.7932 35.1108 21.8555L35.6134 22.0544C36.1289 22.2585 36.1289 22.9907 35.6134 23.1947L35.1108 23.3937C34.9534 23.456 34.8289 23.581 34.7668 23.739L34.5686 24.2434C34.3653 24.7608 33.6358 24.7608 33.4325 24.2434L33.2342 23.739C33.1722 23.581 33.0476 23.456 32.8902 23.3937L32.3876 23.1947C31.8722 22.9907 31.8722 22.2585 32.3876 22.0544L32.8902 21.8555C33.0476 21.7932 33.1722 21.6681 33.2342 21.5102L33.4325 21.0057Z" fill="#00CFA5"/>
<path d="M14.6946 28.8093C14.8979 28.2919 15.6274 28.2919 15.8307 28.8093L16.0289 29.3137C16.091 29.4717 16.2156 29.5967 16.3729 29.659L16.8755 29.8579C17.391 30.062 17.391 30.7942 16.8755 30.9983L16.3729 31.1972C16.2156 31.2595 16.091 31.3845 16.0289 31.5425L15.8307 32.0469C15.6274 32.5643 14.8979 32.5643 14.6946 32.0469L14.4964 31.5425C14.4343 31.3845 14.3097 31.2595 14.1524 31.1972L13.6498 30.9983C13.1343 30.7942 13.1343 30.062 13.6498 29.8579L14.1524 29.659C14.3097 29.5967 14.4343 29.4717 14.4964 29.3137L14.6946 28.8093Z" fill="#00CFA5"/>
</svg>
