<svg width="48" height="48" viewBox="0 0 48 48" fill="none" xmlns="http://www.w3.org/2000/svg">
<path fill-rule="evenodd" clip-rule="evenodd" d="M8 36.0764C8 35.4658 8.49978 34.9709 9.11628 34.9709H38.8837C39.5002 34.9709 40 35.4658 40 36.0764C40 36.6869 39.5002 37.1818 38.8837 37.1818H9.11628C8.49978 37.1818 8 36.6869 8 36.0764Z" fill="#00CFA5"/>
<path fill-rule="evenodd" clip-rule="evenodd" d="M11.9125 12.2951C10.6047 13.5902 10.6047 15.6747 10.6047 19.8436V27.2133C10.6047 29.9926 10.6047 31.3823 11.4765 32.2457C12.3484 33.1091 13.7516 33.1091 16.5581 33.1091H31.4419C34.2484 33.1091 35.6516 33.1091 36.5235 32.2457C37.3953 31.3823 37.3954 29.9926 37.3954 27.2133V19.8436C37.3954 15.6747 37.3953 13.5902 36.0875 12.2951C34.7797 11 32.6749 11 28.4651 11H19.5349C15.3251 11 13.2203 11 11.9125 12.2951ZM18.4186 28.6873C18.4186 28.0767 18.9184 27.5818 19.5349 27.5818H28.4651C29.0816 27.5818 29.5814 28.0767 29.5814 28.6873C29.5814 29.2978 29.0816 29.7927 28.4651 29.7927H19.5349C18.9184 29.7927 18.4186 29.2978 18.4186 28.6873Z" fill="#00CFA5"/>
</svg>
