<svg width="48" height="48" viewBox="0 0 48 48" fill="none" xmlns="http://www.w3.org/2000/svg">
<path d="M25.4357 20.487C28.6078 20.487 31.1792 17.9156 31.1792 14.7435C31.1792 11.5715 28.6078 9 25.4357 9C22.2636 9 19.6922 11.5715 19.6922 14.7435C19.6922 17.9156 22.2636 20.487 25.4357 20.487Z" fill="#00CFA5"/>
<path d="M12.1219 14.4822C11.9777 13.9052 11.393 13.5544 10.816 13.6987C10.239 13.8429 9.88816 14.4276 10.0324 15.0046L10.5809 17.1984C11.5928 21.2462 14.6609 24.435 18.6155 25.6256L18.6155 32.0487C18.6155 33.3388 18.6155 34.4145 18.7303 35.2686C18.8515 36.17 19.1181 36.9839 19.7721 37.6379C20.4261 38.2919 21.2399 38.5585 22.1414 38.6797C22.9954 38.7945 24.0712 38.7945 25.3613 38.7944H25.5106C26.8007 38.7945 27.8765 38.7945 28.7306 38.6797C29.632 38.5585 30.4458 38.2919 31.0998 37.6379C31.7538 36.9839 32.0204 36.17 32.1416 35.2686C32.2565 34.4146 32.2564 33.3388 32.2564 32.0487L32.2564 26.028C33.6652 26.448 34.7413 27.672 34.9209 29.1985L35.8535 37.1254C35.9229 37.7161 36.4581 38.1386 37.0488 38.0691C37.6395 37.9996 38.062 37.4644 37.9925 36.8737L37.06 28.9469C36.7091 25.965 34.182 23.7177 31.1795 23.7177H19.8138C16.3053 22.8941 13.546 20.1786 12.6704 16.6761L12.1219 14.4822Z" fill="#00CFA5"/>
</svg>
