<svg width="48" height="48" viewBox="0 0 48 48" fill="none" xmlns="http://www.w3.org/2000/svg">
<path fill-rule="evenodd" clip-rule="evenodd" d="M24 39.1111C31.5229 39.1111 37.6215 33.0697 37.6215 25.6172C37.6215 18.1647 31.5229 12.1233 24 12.1233C16.4771 12.1233 10.3785 18.1647 10.3785 25.6172C10.3785 33.0697 16.4771 39.1111 24 39.1111ZM24 18.4954C24.6269 18.4954 25.1351 18.9989 25.1351 19.6199V25.1514L28.5864 28.5704C29.0297 29.0095 29.0297 29.7215 28.5864 30.1606C28.1431 30.5998 27.4244 30.5998 26.9811 30.1606L23.1973 26.4123C22.9845 26.2015 22.8649 25.9154 22.8649 25.6172V19.6199C22.8649 18.9989 23.3731 18.4954 24 18.4954Z" fill="#00CFA5"/>
<path fill-rule="evenodd" clip-rule="evenodd" d="M18.1519 8.52867C18.4841 9.05531 18.3225 9.74906 17.7909 10.0782L11.7369 13.8265C11.2053 14.1557 10.505 13.9956 10.1727 13.4689C9.84043 12.9423 10.002 12.2485 10.5337 11.9194L16.5877 8.17107C17.1193 7.84192 17.8196 8.00202 18.1519 8.52867Z" fill="#00CFA5"/>
<path fill-rule="evenodd" clip-rule="evenodd" d="M29.8482 8.52866C30.1804 8.00202 30.8807 7.84192 31.4123 8.17108L37.4663 11.9194C37.998 12.2485 38.1596 12.9423 37.8273 13.4689C37.495 13.9956 36.7947 14.1557 36.2631 13.8265L30.2091 10.0782C29.6775 9.74906 29.5159 9.0553 29.8482 8.52866Z" fill="#00CFA5"/>
</svg>
